<svg viewBox="0 0 14 14" fill="currentColor" xmlns="http://www.w3.org/2000/svg">
<path fill-rule="evenodd" clip-rule="evenodd" d="M0.470072 0.470031C0.610698 0.329581 0.801322 0.250691 1.00007 0.250691C1.19882 0.250691 1.38945 0.329581 1.53007 0.470031L7.00007 5.94003L12.4701 0.470031C12.5387 0.396344 12.6215 0.337242 12.7135 0.29625C12.8055 0.255258 12.9048 0.233217 13.0056 0.23144C13.1063 0.229663 13.2063 0.248188 13.2997 0.285909C13.3931 0.32363 13.4779 0.379774 13.5491 0.450993C13.6203 0.522212 13.6765 0.607045 13.7142 0.700434C13.7519 0.793822 13.7704 0.893851 13.7687 0.994554C13.7669 1.09526 13.7448 1.19457 13.7039 1.28657C13.6629 1.37857 13.6038 1.46137 13.5301 1.53003L8.06007 7.00003L13.5301 12.47C13.6038 12.5387 13.6629 12.6215 13.7039 12.7135C13.7448 12.8055 13.7669 12.9048 13.7687 13.0055C13.7704 13.1062 13.7519 13.2062 13.7142 13.2996C13.6765 13.393 13.6203 13.4779 13.5491 13.5491C13.4779 13.6203 13.3931 13.6764 13.2997 13.7142C13.2063 13.7519 13.1063 13.7704 13.0056 13.7686C12.9048 13.7668 12.8055 13.7448 12.7135 13.7038C12.6215 13.6628 12.5387 13.6037 12.4701 13.53L7.00007 8.06003L1.53007 13.53C1.3879 13.6625 1.19985 13.7346 1.00555 13.7312C0.811249 13.7278 0.625864 13.6491 0.488451 13.5117C0.351038 13.3742 0.272326 13.1889 0.268898 12.9946C0.265469 12.8003 0.337592 12.6122 0.470072 12.47L5.94007 7.00003L0.470072 1.53003C0.329622 1.38941 0.250732 1.19878 0.250732 1.00003C0.250732 0.801281 0.329622 0.610657 0.470072 0.470031Z" fill="black"/>
</svg>
